<?xml version="1.0" encoding="UTF-8"?>
<svg id="Layer_1" data-name="Layer 1" xmlns="http://www.w3.org/2000/svg" version="1.1" viewBox="0 0 170.08 170.08">
  <defs>
    <style>
      .cls-1 {
        fill: #cfe5ff;
      } 

      .cls-1, .cls-2 {
        stroke-width: 0px;
      }

      .cls-2, .cls-3 {
        fill: #252f9c;
      }

      .cls-3 {
        font-family: BodoniSvtyTwoSCITCTT-Book, 'Bodoni 72 Smallcaps';
        font-size: 9.21px;
      }
    </style>
  </defs>
  <ellipse class="cls-1" cx="85.04" cy="85.01" rx="82.08" ry="83.24"/>
  <path class="cls-2" d="M137.13,58.9c0,8.75-1.92,16.19-5.76,22.31-3.84,6.13-9.02,10.97-15.53,14.52-5.68,3.05-11.91,5.19-18.7,6.43-6.79,1.24-26.05,1.79-20.83,1.79l.33,38.86-11.82.07c18.95,1.61-12.66-11.4-12.6-23.48.11-18.68.13-25.25.13-44.07,0-7.39-.03-15.99-.08-25.78-.06-9.79,39.98-18.09,12.55-31.56,1.78-.06-13.96-.08,5.3-.08h4.05c11.69,0,20.76.62,27.22,1.86,6.46,1.24,12.33,3.44,17.62,6.6,5.62,3.33,10.05,7.78,13.28,13.34,3.23,5.56,4.84,11.95,4.84,19.18Z"/>
  <path class="cls-2" d="M78.69,104.43c6.95,0,10.42-1.09,17.37-1.09v6.42c-3.95,9.25-7.72,18.71-12.51,27.58-3.89,6.35,7.56-5.15,12.51-.69v5.39c-6.95,0-10.42,0-17.37,0v-5.39c3.97-9.19,7.74-18.54,12.34-27.43,2.33-5.7-6.7,5.3-12.34.6,0-2.16,0-3.23,0-5.39Z"/>
  <path class="cls-1" d="M116.65,57.74l-26.13,9.88v-1.77c0-.31.19-.59.48-.71l17.66-6.87c.64-.25.64-1.16,0-1.41l-17.66-6.87c-.29-.11-.48-.39-.48-.71v-1.84l26.13,9.95v.35Z"/>
  <path class="cls-1" d="M72.99,64.72l26.13-9.88v1.77c0,.31-.19.59-.48.71l-17.66,6.87c-.64.25-.64,1.16,0,1.41l17.66,6.87c.29.11.48.39.48.71v1.84l-26.13-9.95v-.35Z"/>
  <text class="cls-3" transform="translate(48.07 150.21) scale(.99 1)"><tspan x="0" y="0">frontend developer</tspan></text>
</svg>